<?xml version="1.0" encoding="utf-8"?>
<!-- Generator: Adobe Illustrator 19.2.0, SVG Export Plug-In . SVG Version: 6.00 Build 0)  -->
<svg version="1.1" id="Layer_1" xmlns="http://www.w3.org/2000/svg" xmlns:xlink="http://www.w3.org/1999/xlink" x="0px" y="0px"
	 viewBox="0 0 120 120" style="enable-background:new 0 0 120 120;" xml:space="preserve">
<style type="text/css">
	.st0{clip-path:url(#SVGID_2_);}
	.st1{fill:#FEFEFE;}
	.st2{fill:none;stroke:#213F99;stroke-width:2;stroke-linecap:round;stroke-linejoin:round;}
	.st3{fill:#D7EAF8;stroke:#213F99;stroke-width:2;stroke-linecap:round;stroke-linejoin:round;}
	.st4{fill:none;stroke:#ED2156;stroke-width:2;stroke-linecap:round;stroke-linejoin:round;}
</style>
<title>Page 1</title>
<desc>Created with Sketch.</desc>
<g>
	<defs>
		<rect id="SVGID_1_" y="1" width="120" height="120"/>
	</defs>
	<clipPath id="SVGID_2_">
		<use xlink:href="#SVGID_1_"  style="overflow:visible;"/>
	</clipPath>
	<g id="Page-1_1_" class="st0">
		<g id="Coworking" transform="translate(-830.000000, -3321.000000)">
			<g id="Page-1" transform="translate(831.000000, 3322.000000)">
				<polygon id="Fill-1" class="st1" points="83.4,46.5 34.5,46.5 23.8,28.5 23.8,79.4 94.2,79.4 94.2,28.5 				"/>
				<polygon id="Stroke-2" class="st2" points="83.4,46.5 34.5,46.5 23.8,28.5 23.8,79.4 94.2,79.4 94.2,28.5 				"/>
				<polygon id="Fill-4" class="st1" points="83.4,46.5 94.2,28.5 23.8,28.5 34.5,46.5 				"/>
				<g id="Group-15">
					<polygon id="Stroke-5" class="st3" points="83.4,46.5 94.2,28.5 23.8,28.5 34.5,46.5 					"/>
					<path id="Stroke-7" class="st4" d="M85.6,77.1c-7.7-1.6-6.5-7.5-14.2-9.1s-8.9,4.2-16.5,2.6s-6.5-7.5-14.2-9.1"/>
					<path id="Stroke-9" class="st4" d="M83.1,89.5c-7.7-1.6-6.5-7.5-14.2-9.1S60,84.6,52.4,83s-6.5-7.4-14.1-9"/>
					<path id="Stroke-11" class="st4" d="M86.8,71c-7.7-1.6-6.5-7.5-14.2-9.1s-8.9,4.2-16.5,2.6c-7.7-1.6-6.5-7.5-14.2-9.1"/>
					<path id="Stroke-13" class="st4" d="M84.3,83.3c-7.7-1.6-6.5-7.5-14.2-9.1s-8.9,4.2-16.5,2.6s-6.5-7.5-14.2-9.1"/>
				</g>
			</g>
		</g>
	</g>
</g>
</svg>
