<?xml version="1.0" encoding="utf-8"?>
<!-- Generator: Adobe Illustrator 19.2.0, SVG Export Plug-In . SVG Version: 6.00 Build 0)  -->
<svg version="1.1" id="Layer_1" xmlns="http://www.w3.org/2000/svg" xmlns:xlink="http://www.w3.org/1999/xlink" x="0px" y="0px"
	 viewBox="0 0 120 120" style="enable-background:new 0 0 120 120;" xml:space="preserve">
<style type="text/css">
	.st0{clip-path:url(#SVGID_2_);}
	.st1{fill:#FFFFFF;}
	.st2{fill:none;stroke:#ED2156;stroke-width:2;}
	.st3{fill:#D7EAF8;}
	.st4{fill:none;stroke:#213F99;stroke-width:2;}
</style>
<title>Page 1</title>
<desc>Created with Sketch.</desc>
<g>
	<defs>
		<rect id="SVGID_1_" y="1" width="120" height="120"/>
	</defs>
	<clipPath id="SVGID_2_">
		<use xlink:href="#SVGID_1_"  style="overflow:visible;"/>
	</clipPath>
	<g id="Page-1_1_" class="st0">
		<g id="Coworking" transform="translate(-1124.000000, -3321.000000)">
			<g id="Page-1" transform="translate(1125.000000, 3322.000000)">
				<path id="Fill-1" class="st1" d="M89.1,62.6c3.4-4.3,5.1-10,4.3-15.8c-1.6-11.6-12.2-19.7-23.8-18.1S50,40.9,51.5,52.5
					c1.6,11.6,12.2,19.7,23.8,18.1c1.7-0.2,3.3-0.7,4.8-1.3l9.9,4.8c1.6,0.8,3.4-0.8,2.7-2.5L89.1,62.6z"/>
				<path id="Stroke-3" class="st2" d="M89.1,62.6c3.4-4.3,5.1-10,4.3-15.8c-1.6-11.6-12.2-19.7-23.8-18.1S50,40.9,51.5,52.5
					c1.6,11.6,12.2,19.7,23.8,18.1c1.7-0.2,3.3-0.7,4.8-1.3l9.9,4.8c1.6,0.8,3.4-0.8,2.7-2.5L89.1,62.6z"/>
				<path id="Fill-5" class="st3" d="M62.3,77.7c3.4-4.3,5.1-10,4.3-15.8C65,50.3,54.4,42.2,42.8,43.8S23.1,56,24.7,67.6
					s12.2,19.7,23.8,18.1c1.7-0.2,3.3-0.7,4.8-1.3l9.9,4.8c1.6,0.8,3.4-0.8,2.7-2.5L62.3,77.7z"/>
				<path id="Stroke-7" class="st4" d="M62.3,77.7c3.4-4.3,5.1-10,4.3-15.8C65,50.3,54.4,42.2,42.8,43.8S23.1,56,24.7,67.6
					s12.2,19.7,23.8,18.1c1.7-0.2,3.3-0.7,4.8-1.3l9.9,4.8c1.6,0.8,3.4-0.8,2.7-2.5L62.3,77.7z"/>
			</g>
		</g>
	</g>
</g>
</svg>
