<?xml version="1.0" encoding="utf-8"?>
<!-- Generator: Adobe Illustrator 19.2.0, SVG Export Plug-In . SVG Version: 6.00 Build 0)  -->
<svg version="1.1" id="Layer_1" xmlns="http://www.w3.org/2000/svg" xmlns:xlink="http://www.w3.org/1999/xlink" x="0px" y="0px"
	 viewBox="0 0 120 120" style="enable-background:new 0 0 120 120;" xml:space="preserve">
<style type="text/css">
	.st0{clip-path:url(#SVGID_2_);}
	.st1{fill:#D7EAF8;}
	.st2{fill:none;stroke:#ED2156;stroke-width:2;}
	.st3{fill:none;stroke:#273B92;stroke-width:2;}
	.st4{fill:none;stroke:#273B92;stroke-width:2;stroke-linecap:round;stroke-linejoin:round;}
	.st5{fill:none;stroke:#ED2156;stroke-width:2;stroke-linecap:round;stroke-linejoin:round;}
</style>
<title>Page 1</title>
<desc>Created with Sketch.</desc>
<g>
	<defs>
		<rect id="SVGID_1_" width="120" height="120"/>
	</defs>
	<clipPath id="SVGID_2_">
		<use xlink:href="#SVGID_1_"  style="overflow:visible;"/>
	</clipPath>
	<g id="Page-1_1_" class="st0">
		<g id="Coworking" transform="translate(-247.000000, -3637.000000)">
			<g id="Page-1" transform="translate(248.000000, 3638.000000)">
				<g id="Group-4" transform="translate(49.371429, 31.506303)">
					<path id="Fill-1" class="st1" d="M27.8,47c4.9,0,8.8-3.9,8.8-8.8l0,0c0-4.8-3.9-8.8-8.8-8.8"/>
					<path id="Stroke-3" class="st2" d="M27.8,47c4.9,0,8.8-3.9,8.8-8.8l0,0c0-4.8-3.9-8.8-8.8-8.8"/>
				</g>
				<path id="Fill-5" class="st1" d="M77.1,55v25.1c0,4.8-4,8.8-8.8,8.8H52.9c-4.9,0-8.8-4-8.8-8.8V55c0-0.4,0.3-0.7,0.7-0.7h31.7
					C76.9,54.2,77.1,54.6,77.1,55"/>
				<path id="Stroke-7" class="st3" d="M77.1,55v25.1c0,4.8-4,8.8-8.8,8.8H52.9c-4.9,0-8.8-4-8.8-8.8V55c0-0.4,0.3-0.7,0.7-0.7h31.7
					C76.9,54.2,77.1,54.6,77.1,55z"/>
				<path id="Stroke-9" class="st4" d="M90.6,88.7h-47"/>
				<path id="Stroke-11" class="st4" d="M34.2,88.7h5.3"/>
				<path id="Stroke-13" class="st4" d="M27.5,88.7h2.2"/>
				<path id="Stroke-15" class="st5" d="M63.5,47.8c-5.7,0-10.4-4.6-10.4-10.4c0-4.6,3.7-8.3,8.3-8.3c3.7,0,6.6,3,6.6,6.6
					c0,2.9-2.4,5.3-5.3,5.3c-2.3,0-4.3-1.9-4.3-4.2"/>
			</g>
		</g>
	</g>
</g>
</svg>
