<?xml version="1.0" encoding="utf-8"?>
<!-- Generator: Adobe Illustrator 19.2.0, SVG Export Plug-In . SVG Version: 6.00 Build 0)  -->
<svg version="1.1" id="Layer_1" xmlns="http://www.w3.org/2000/svg" xmlns:xlink="http://www.w3.org/1999/xlink" x="0px" y="0px"
	 viewBox="0 0 120 120" style="enable-background:new 0 0 120 120;" xml:space="preserve">
<style type="text/css">
	.st0{clip-path:url(#SVGID_2_);}
	.st1{fill:none;stroke:#ED2156;stroke-width:2;stroke-linecap:round;stroke-linejoin:round;}
	.st2{fill:#D7EAF8;stroke:#273B92;stroke-width:2;stroke-linecap:round;stroke-linejoin:round;}
	.st3{fill:#FEFEFE;}
	.st4{fill:none;stroke:#273B92;stroke-width:2;stroke-linecap:round;stroke-linejoin:round;}
</style>
<title>Page 1</title>
<desc>Created with Sketch.</desc>
<g>
	<defs>
		<rect id="SVGID_1_" width="120" height="120"/>
	</defs>
	<clipPath id="SVGID_2_">
		<use xlink:href="#SVGID_1_"  style="overflow:visible;"/>
	</clipPath>
	<g id="Page-1_1_" class="st0">
		<g id="Coworking" transform="translate(-1129.000000, -3637.000000)">
			<g id="Page-1" transform="translate(1130.000000, 3638.000000)">
				<polygon id="Stroke-1" class="st1" points="42.5,44.1 75.8,44.1 75.8,28.6 42.5,28.6 				"/>
				<path id="Stroke-3" class="st2" d="M38.3,73c-4.3,0-7.8-3.5-7.8-7.8V51.8c0-4.3,3.5-7.8,7.8-7.8H80c4.3,0,7.8,3.5,7.8,7.8v13.4
					c0,4.3-3.5,7.8-7.8,7.8H38.3z"/>
				<polygon id="Fill-4" class="st3" points="42.4,89.6 75.7,89.6 75.7,64.1 42.4,64.1 				"/>
				<polygon id="Stroke-5" class="st1" points="42.4,89.6 75.7,89.6 75.7,64.1 42.4,64.1 				"/>
				<path id="Stroke-6" class="st1" d="M68.4,73H49.9"/>
				<path id="Stroke-7" class="st1" d="M68.4,79H49.9"/>
				<path id="Stroke-8" class="st4" d="M39.7,64h38.8"/>
			</g>
		</g>
	</g>
</g>
</svg>
