<?xml version="1.0" encoding="UTF-8"?>
<svg width="64px" height="120px" viewBox="0 0 64 120" version="1.1" xmlns="http://www.w3.org/2000/svg" xmlns:xlink="http://www.w3.org/1999/xlink">
    <!-- Generator: Sketch 46.2 (44496) - http://www.bohemiancoding.com/sketch -->
    <title>Artboard 2</title>
    <desc>Created with Sketch.</desc>
    <defs></defs>
    <g id="Page-1" stroke="none" stroke-width="1" fill="none" fill-rule="evenodd">
        <g id="Artboard-2">
            <g id="icn_tea" transform="translate(1.000000, 30.000000)">
                <g id="Group-4" transform="translate(47.828572, 31.506303)">
                    <path d="M0.775,18 C5.521875,18 9.3,14.1 9.3,9.2 L9.3,9.2 C9.3,4.4 5.521875,0.4 0.775,0.4" id="Fill-1" fill="#D7EAF8" fill-rule="nonzero"></path>
                    <path d="M0.775,18 C5.521875,18 9.3,14.1 9.3,9.2 L9.3,9.2 C9.3,4.4 5.521875,0.4 0.775,0.4" id="Stroke-3" stroke="#ED2156" stroke-width="2"></path>
                </g>
                <path d="M48.534375,26 L48.534375,51.1 C48.534375,55.9 44.659375,59.9 40.009375,59.9 L25.090625,59.9 C20.34375,59.9 16.565625,55.9 16.565625,51.1 L16.565625,26 C16.565625,25.6 16.85625,25.3 17.24375,25.3 L47.953125,25.3 C48.340625,25.2 48.534375,25.6 48.534375,26" id="Fill-5" fill="#D7EAF8" fill-rule="nonzero"></path>
                <path d="M48.534375,26 L48.534375,51.1 C48.534375,55.9 44.659375,59.9 40.009375,59.9 L25.090625,59.9 C20.34375,59.9 16.565625,55.9 16.565625,51.1 L16.565625,26 C16.565625,25.6 16.85625,25.3 17.24375,25.3 L47.953125,25.3 C48.340625,25.2 48.534375,25.6 48.534375,26 Z" id="Stroke-7" stroke="#273B92" stroke-width="2"></path>
                <path d="M61.6125,59.7 L16.08125,59.7" id="Stroke-9" stroke="#273B92" stroke-width="2" stroke-linecap="round" stroke-linejoin="round"></path>
                <path d="M6.975,59.7 L12.109375,59.7" id="Stroke-11" stroke="#273B92" stroke-width="2" stroke-linecap="round" stroke-linejoin="round"></path>
                <path d="M0.484375,59.7 L2.615625,59.7" id="Stroke-13" stroke="#273B92" stroke-width="2" stroke-linecap="round" stroke-linejoin="round"></path>
                <path d="M35.359375,18.8 C29.8375,18.8 25.284375,14.2 25.284375,8.4 C25.284375,3.8 28.86875,0.1 33.325,0.1 C36.909375,0.1 39.71875,3.1 39.71875,6.7 C39.71875,9.6 37.39375,12 34.584375,12 C32.35625,12 30.41875,10.1 30.41875,7.8" id="Stroke-15" stroke="#ED2156" stroke-width="2" stroke-linecap="round" stroke-linejoin="round"></path>
            </g>
        </g>
    </g>
</svg>