<?xml version="1.0" encoding="UTF-8"?>
<svg width="70px" height="120px" viewBox="0 0 70 120" version="1.1" xmlns="http://www.w3.org/2000/svg" xmlns:xlink="http://www.w3.org/1999/xlink">
    <!-- Generator: Sketch 46.2 (44496) - http://www.bohemiancoding.com/sketch -->
    <title>Artboard 2 Copy 2</title>
    <desc>Created with Sketch.</desc>
    <defs></defs>
    <g id="Page-1" stroke="none" stroke-width="1" fill="none" fill-rule="evenodd">
        <g id="Artboard-2-Copy-2">
            <g id="icn_meeting" transform="translate(1.000000, 30.000000)">
                <path d="M63.24,33.6114286 C66.5428571,29.4342857 68.1942857,23.8971429 67.4171429,18.2628571 C65.8628571,6.99428571 55.5657143,-0.874285714 44.2971429,0.68 C33.0285714,2.23428571 25.2571429,12.5314286 26.7142857,23.8 C28.2685714,35.0685714 38.5657143,42.9371429 49.8342857,41.3828571 C51.4857143,41.1885714 53.04,40.7028571 54.4971429,40.12 L64.1142857,44.7828571 C65.6685714,45.56 67.4171429,44.0057143 66.7371429,42.3542857 L63.24,33.6114286 Z" id="Fill-1" fill="#FFFFFF" fill-rule="nonzero"></path>
                <path d="M63.24,33.6114286 C66.5428571,29.4342857 68.1942857,23.8971429 67.4171429,18.2628571 C65.8628571,6.99428571 55.5657143,-0.874285714 44.2971429,0.68 C33.0285714,2.23428571 25.2571429,12.5314286 26.7142857,23.8 C28.2685714,35.0685714 38.5657143,42.9371429 49.8342857,41.3828571 C51.4857143,41.1885714 53.04,40.7028571 54.4971429,40.12 L64.1142857,44.7828571 C65.6685714,45.56 67.4171429,44.0057143 66.7371429,42.3542857 L63.24,33.6114286 Z" id="Stroke-3" stroke="#ED2156" stroke-width="2"></path>
                <path d="M37.2057143,48.28 C40.5085714,44.1028571 42.16,38.5657143 41.3828571,32.9314286 C39.8285714,21.6628571 29.5314286,13.7942857 18.2628571,15.3485714 C6.99428571,16.9028571 -0.874285714,27.2 0.68,38.4685714 C2.23428571,49.7371429 12.5314286,57.6057143 23.8,56.0514286 C25.4514286,55.8571429 27.0057143,55.3714286 28.4628571,54.7885714 L38.08,59.4514286 C39.6342857,60.2285714 41.3828571,58.6742857 40.7028571,57.0228571 L37.2057143,48.28 Z" id="Fill-5" fill="#D7EAF8" fill-rule="nonzero"></path>
                <path d="M37.2057143,48.28 C40.5085714,44.1028571 42.16,38.5657143 41.3828571,32.9314286 C39.8285714,21.6628571 29.5314286,13.7942857 18.2628571,15.3485714 C6.99428571,16.9028571 -0.874285714,27.2 0.68,38.4685714 C2.23428571,49.7371429 12.5314286,57.6057143 23.8,56.0514286 C25.4514286,55.8571429 27.0057143,55.3714286 28.4628571,54.7885714 L38.08,59.4514286 C39.6342857,60.2285714 41.3828571,58.6742857 40.7028571,57.0228571 L37.2057143,48.28 Z" id="Stroke-7" stroke="#213F99" stroke-width="2"></path>
            </g>
        </g>
    </g>
</svg>