<?xml version="1.0" encoding="UTF-8"?>
<svg width="44px" height="120px" viewBox="0 0 44 120" version="1.1" xmlns="http://www.w3.org/2000/svg" xmlns:xlink="http://www.w3.org/1999/xlink">
    <!-- Generator: Sketch 46.2 (44496) - http://www.bohemiancoding.com/sketch -->
    <title>Artboard 2 Copy 4</title>
    <desc>Created with Sketch.</desc>
    <defs></defs>
    <g id="Page-1" stroke="none" stroke-width="1" fill="none" fill-rule="evenodd">
        <g id="Artboard-2-Copy-4">
            <g id="icn_keycard" transform="translate(1.000000, 29.000000)">
                <polygon id="Stroke-1" stroke="#ED2156" stroke-width="2" fill="#D7EAF8" fill-rule="nonzero" stroke-linecap="round" stroke-linejoin="round" points="0.763636364 53.8 41.2363636 53.8 41.2363636 44.1 0.763636364 44.1"></polygon>
                <polygon id="Stroke-3" stroke="#213F99" stroke-width="2" stroke-linecap="round" stroke-linejoin="round" points="0.763636364 61.7 41.2363636 61.7 41.2363636 0.3 0.763636364 0.3"></polygon>
                <path d="M22.3363636,11.2 C24.3409091,14.1 23.6727273,18.1 20.9045455,20.1 C18.1363636,22.2 14.3181818,21.5 12.4090909,18.6 C10.4045455,15.7 11.0727273,11.7 13.8409091,9.7 C16.6090909,7.7 20.4272727,8.4 22.3363636,11.2" id="Fill-4" fill="#D7EAF8" fill-rule="nonzero"></path>
                <path d="M22.3363636,11.2 C24.3409091,14.1 23.6727273,18.1 20.9045455,20.1 C18.1363636,22.2 14.3181818,21.5 12.4090909,18.6 C10.4045455,15.7 11.0727273,11.7 13.8409091,9.7 C16.6090909,7.7 20.4272727,8.4 22.3363636,11.2 Z" id="Stroke-5" stroke="#273B92" stroke-width="2" stroke-linecap="round" stroke-linejoin="round"></path>
                <path d="M30.6409091,34.3 L21,20.2" id="Stroke-6" stroke="#273B92" stroke-width="2" stroke-linecap="round" stroke-linejoin="round"></path>
                <path d="M29.2090909,32.1 L24.2454545,35.8" id="Stroke-7" stroke="#273B92" stroke-width="2" stroke-linecap="round" stroke-linejoin="round"></path>
                <path d="M26.4409091,28.1 L22.7181818,30.9" id="Stroke-8" stroke="#273B92" stroke-width="2" stroke-linecap="round" stroke-linejoin="round"></path>
            </g>
        </g>
    </g>
</svg>