<?xml version="1.0" encoding="UTF-8"?>
<svg width="72px" height="120px" viewBox="0 0 72 120" version="1.1" xmlns="http://www.w3.org/2000/svg" xmlns:xlink="http://www.w3.org/1999/xlink">
    <!-- Generator: Sketch 46.2 (44496) - http://www.bohemiancoding.com/sketch -->
    <title>Artboard 2 Copy 5</title>
    <desc>Created with Sketch.</desc>
    <defs></defs>
    <g id="Page-1" stroke="none" stroke-width="1" fill="none" fill-rule="evenodd">
        <g id="Artboard-2-Copy-5">
            <g id="icn_dinner" transform="translate(1.000000, 29.000000)">
                <path d="M69.2222222,23.2 C69.2222222,42.8 69.2222222,58.6 34.9027778,58.6 C0.583333333,58.6 0.583333333,42.7 0.583333333,23.2 L69.2222222,23.2 Z" id="Fill-1" fill="#D7EAF8" fill-rule="nonzero"></path>
                <path d="M69.2222222,23.2 C69.2222222,42.8 69.2222222,58.6 34.9027778,58.6 C0.583333333,58.6 0.583333333,42.7 0.583333333,23.2 L69.2222222,23.2 Z" id="Stroke-3" stroke="#213F99" stroke-width="2" stroke-linecap="round" stroke-linejoin="round"></path>
                <g id="Group-14" transform="translate(0.000000, 59.062500)" stroke="#273B92" stroke-width="2" stroke-linecap="round" stroke-linejoin="round">
                    <path d="M0,0.7 L57.4583333,0.7" id="Stroke-5"></path>
                    <path d="M64.8472222,0.7 L60.7638889,0.7" id="Stroke-7"></path>
                    <path d="M70,0.7 L68.25,0.7" id="Stroke-9"></path>
                </g>
                <path d="M35.5833333,0.2 C35.6805556,1.8 33.9305556,4.2 33.9305556,5.8 C33.9305556,7.4 35.6805556,9.9 35.5833333,11.4 C35.4861111,12.7 33.9305556,15.8 33.9305556,15.8" id="Stroke-11" stroke="#ED2156" stroke-width="2" stroke-linecap="round" stroke-linejoin="round"></path>
                <path d="M42.9722222,6.1 C42.9722222,7.1 41.9027778,8.7 41.9027778,9.7 C41.9027778,10.7 42.9722222,12.3 42.9722222,13.3 C42.9722222,14.1 41.9027778,16.2 41.9027778,16.2" id="Stroke-13" stroke="#ED2156" stroke-width="2" stroke-linecap="round" stroke-linejoin="round"></path>
                <path d="M28.0972222,5.3 C28.1944444,6.4 26.9305556,8.1 26.9305556,9.2 C26.9305556,10.3 28.0972222,12 28.0972222,13.1 C28.0972222,14 26.9305556,16.1 26.9305556,16.1" id="Stroke-15" stroke="#ED2156" stroke-width="2" stroke-linecap="round" stroke-linejoin="round"></path>
            </g>
        </g>
    </g>
</svg>