<?xml version="1.0" encoding="UTF-8"?>
<svg width="58px" height="120px" viewBox="0 0 58 120" version="1.1" xmlns="http://www.w3.org/2000/svg" xmlns:xlink="http://www.w3.org/1999/xlink">
    <!-- Generator: Sketch 46.2 (44496) - http://www.bohemiancoding.com/sketch -->
    <title>Artboard 2 Copy 6</title>
    <desc>Created with Sketch.</desc>
    <defs></defs>
    <g id="Page-1" stroke="none" stroke-width="1" fill="none" fill-rule="evenodd">
        <g id="Artboard-2-Copy-6">
            <g id="icn_print" transform="translate(1.000000, 29.000000)">
                <polygon id="Stroke-1" stroke="#ED2156" stroke-width="2" stroke-linecap="round" stroke-linejoin="round" points="11.8758621 16 44.1241379 16 44.1241379 0.5 11.8758621 0.5"></polygon>
                <path d="M7.82068966,44.9 C3.66896552,44.9 0.289655172,41.4 0.289655172,37.1 L0.289655172,23.7 C0.289655172,19.4 3.66896552,15.9 7.82068966,15.9 L48.0827586,15.9 C52.2344828,15.9 55.6137931,19.4 55.6137931,23.7 L55.6137931,37.1 C55.6137931,41.4 52.2344828,44.9 48.0827586,44.9 L7.82068966,44.9 Z" id="Stroke-3" stroke="#273B92" stroke-width="2" fill="#D7EAF8" fill-rule="nonzero" stroke-linecap="round" stroke-linejoin="round"></path>
                <polygon id="Fill-4" fill="#FEFEFE" fill-rule="nonzero" points="11.7793103 61.5 43.9310345 61.5 43.9310345 36 11.7793103 36"></polygon>
                <polygon id="Stroke-5" stroke="#ED2156" stroke-width="2" stroke-linecap="round" stroke-linejoin="round" points="11.7793103 61.5 43.9310345 61.5 43.9310345 36 11.7793103 36"></polygon>
                <path d="M36.8827586,44.9 L19.1172414,44.9" id="Stroke-6" stroke="#ED2156" stroke-width="2" stroke-linecap="round" stroke-linejoin="round"></path>
                <path d="M36.8827586,50.9 L19.1172414,50.9" id="Stroke-7" stroke="#ED2156" stroke-width="2" stroke-linecap="round" stroke-linejoin="round"></path>
                <path d="M9.17241379,35.9 L46.6344828,35.9" id="Stroke-8" stroke="#273B92" stroke-width="2" stroke-linecap="round" stroke-linejoin="round"></path>
            </g>
        </g>
    </g>
</svg>