<?xml version="1.0" encoding="utf-8"?>
<!-- Generator: Adobe Illustrator 19.2.0, SVG Export Plug-In . SVG Version: 6.00 Build 0)  -->
<svg version="1.1" xmlns="http://www.w3.org/2000/svg" xmlns:xlink="http://www.w3.org/1999/xlink" x="0px" y="0px"
	 viewBox="0 0 200 100" style="enable-background:new 0 0 200 100;" xml:space="preserve">
<style type="text/css">
	.st0{fill:#FFFFFF;}
	.st1{fill:none;stroke:#253E91;stroke-width:3;}
	.st2{fill:#D6E9F8;}
	.st3{fill:none;stroke:#EC2557;stroke-width:3;}
	.st4{fill:none;stroke:#253E91;stroke-width:3;stroke-linecap:round;stroke-linejoin:round;}
	.st5{display:none;}
	.st6{display:inline;}
</style>
<g id="Layer_1">
	<g id="Page-1_1_">
		<g id="Coworking" transform="translate(-263.000000, -4320.000000)">
			<g id="Group-5" transform="translate(150.000000, 4261.000000)">
				<g id="Group-3" transform="translate(0.000000, 61.000000)">
					<g id="Page-1" transform="translate(115.000000, 0.000000)">
						<path id="Fill-1" class="st0" d="M141.4,77H52.2c-2.2,0-4-1.8-4-4.1V20.3c0-2.2,1.8-4.1,4-4.1h89.2c2.2,0,4,1.8,4,4.1V73
							C145.5,75.2,143.6,77,141.4,77"/>
						<path id="Stroke-3" class="st1" d="M141.4,77H52.2c-2.2,0-4-1.8-4-4.1V20.3c0-2.2,1.8-4.1,4-4.1h89.2c2.2,0,4,1.8,4,4.1V73
							C145.5,75.2,143.6,77,141.4,77z"/>
						<path id="Fill-5" class="st2" d="M102.9,39.6c0,2.8-2.3,5.1-5.1,5.1c-2.8,0-5.1-2.3-5.1-5.1s2.3-5.1,5.1-5.1
							C100.6,34.5,102.9,36.8,102.9,39.6"/>
						<path id="Stroke-7" class="st3" d="M102.9,39.6c0,2.8-2.3,5.1-5.1,5.1c-2.8,0-5.1-2.3-5.1-5.1s2.3-5.1,5.1-5.1
							C100.6,34.5,102.9,36.8,102.9,39.6z"/>
						<path id="Stroke-9" class="st4" d="M134.3,92.2h-78"/>
						<path id="Stroke-11" class="st4" d="M139.4,92.2h23.3"/>
						<path id="Stroke-13" class="st4" d="M42.1,92.2h9.1"/>
						<path id="Stroke-15" class="st4" d="M33,92.2h4.1"/>
						<polygon id="Fill-17" class="st2" points="111,91.2 83.7,91.2 89.3,77 105.4,77 						"/>
						<polygon id="Stroke-19" class="st1" points="111,91.2 83.7,91.2 89.3,77 105.4,77 						"/>
					</g>
				</g>
			</g>
		</g>
	</g>
</g>
<g id="Layer_3" class="st5">
	<g id="Page-1_4_" class="st6">
		<g id="Coworking_2_" transform="translate(-617.000000, -4320.000000)">
			<g id="Group-8" transform="translate(538.000000, 4261.000000)">
				<g id="Group-6" transform="translate(0.000000, 60.000000)">
					<g id="Page-1_5_" transform="translate(80.000000, 0.000000)">
						<path id="Fill-1_2_" class="st0" d="M113.3,77.4H23.9c-2.2,0-4.1-1.8-4.1-4.1V20.6c0-2.2,1.8-4.1,4.1-4.1h89.4
							c2.2,0,4.1,1.8,4.1,4.1v52.7C117.4,75.6,115.5,77.4,113.3,77.4"/>
						<path id="Stroke-3_2_" class="st1" d="M113.3,77.4H23.9c-2.2,0-4.1-1.8-4.1-4.1V20.6c0-2.2,1.8-4.1,4.1-4.1h89.4
							c2.2,0,4.1,1.8,4.1,4.1v52.7C117.4,75.6,115.5,77.4,113.3,77.4z"/>
						<path id="Fill-5_2_" class="st2" d="M74,39.3c0,2.8-2.3,5.1-5.1,5.1s-5.1-2.3-5.1-5.1c0-2.8,2.3-5.1,5.1-5.1S74,36.5,74,39.3"
							/>
						<path id="Stroke-7_2_" class="st3" d="M74,39.3c0,2.8-2.3,5.1-5.1,5.1s-5.1-2.3-5.1-5.1c0-2.8,2.3-5.1,5.1-5.1
							S74,36.5,74,39.3z"/>
						<path id="Stroke-9_2_" class="st4" d="M163.2,91.7H29.8"/>
						<path id="Stroke-11_2_" class="st4" d="M168.4,91.7h22.1"/>
						<path id="Stroke-13_2_" class="st4" d="M16.6,91.7h8.3"/>
						<path id="Stroke-15_2_" class="st4" d="M7.5,91.7H11"/>
						<polygon id="Fill-17_2_" class="st2" points="82.5,91.9 54.7,91.9 60.5,77.4 76.7,77.4 						"/>
						<polygon id="Stroke-19_2_" class="st1" points="82.5,91.9 54.7,91.9 60.5,77.4 76.7,77.4 						"/>
						<path id="Fill-21_1_" class="st0" d="M159.1,79.8H86c-2.2,0-4.1-1.8-4.1-4.1V33.2c0-2.2,1.8-4.1,4.1-4.1h73.2
							c2.2,0,4.1,1.8,4.1,4.1v42.6C163.2,78,161.4,79.8,159.1,79.8"/>
						<path id="Stroke-23_1_" class="st1" d="M159.1,79.8H86c-2.2,0-4.1-1.8-4.1-4.1V33.2c0-2.2,1.8-4.1,4.1-4.1h73.2
							c2.2,0,4.1,1.8,4.1,4.1v42.6C163.2,78,161.4,79.8,159.1,79.8z"/>
						<path id="Fill-25_1_" class="st2" d="M127,48c0,2.3-1.9,4.2-4.2,4.2c-2.3,0-4.2-1.9-4.2-4.2s1.9-4.2,4.2-4.2
							C125.1,43.8,127,45.7,127,48"/>
						<path id="Stroke-27_1_" class="st3" d="M127,48c0,2.3-1.9,4.2-4.2,4.2c-2.3,0-4.2-1.9-4.2-4.2s1.9-4.2,4.2-4.2
							C125.1,43.8,127,45.7,127,48z"/>
						<polygon id="Fill-29_1_" class="st2" points="134.1,91.9 111,91.9 115.8,79.8 129.3,79.8 						"/>
						<polygon id="Stroke-31_1_" class="st1" points="134.1,91.9 111,91.9 115.8,79.8 129.3,79.8 						"/>
					</g>
				</g>
			</g>
		</g>
	</g>
</g>
<g id="Layer_2" class="st5">
	<g id="Page-1_2_" class="st6">
		<g id="Coworking_1_" transform="translate(-1004.000000, -4320.000000)">
			<g id="Group-11" transform="translate(929.000000, 4262.000000)">
				<g id="Group-10" transform="translate(0.000000, 59.000000)">
					<g id="Page-1_3_" transform="translate(76.000000, 0.000000)">
						<path id="Fill-1_1_" class="st0" d="M139.3,77.4H50c-2.2,0-4.1-1.8-4.1-4.1V20.7c0-2.2,1.8-4.1,4.1-4.1h89.3
							c2.2,0,4.1,1.8,4.1,4.1v52.7C143.3,75.6,141.5,77.4,139.3,77.4"/>
						<path id="Stroke-3_1_" class="st1" d="M139.3,77.4H50c-2.2,0-4.1-1.8-4.1-4.1V20.7c0-2.2,1.8-4.1,4.1-4.1h89.3
							c2.2,0,4.1,1.8,4.1,4.1v52.7C143.3,75.6,141.5,77.4,139.3,77.4z"/>
						<path id="Fill-5_1_" class="st2" d="M100,39.3c0,2.8-2.3,5.1-5.1,5.1s-5.1-2.3-5.1-5.1c0-2.8,2.3-5.1,5.1-5.1
							S100,36.5,100,39.3"/>
						<path id="Stroke-7_1_" class="st3" d="M100,39.3c0,2.8-2.3,5.1-5.1,5.1s-5.1-2.3-5.1-5.1c0-2.8,2.3-5.1,5.1-5.1
							S100,36.5,100,39.3z"/>
						<path id="Stroke-9_1_" class="st4" d="M167.9,91.9h-139"/>
						<path id="Stroke-11_1_" class="st4" d="M173.4,91.9h17.1"/>
						<path id="Stroke-13_1_" class="st4" d="M17,91.9h6.7"/>
						<path id="Stroke-15_1_" class="st4" d="M7.5,91.9h3.6"/>
						<polygon id="Fill-17_1_" class="st2" points="108.5,91.9 80.8,91.9 86.5,77.4 102.7,77.4 						"/>
						<polygon id="Stroke-19_1_" class="st1" points="108.5,91.9 80.8,91.9 86.5,77.4 102.7,77.4 						"/>
						<path id="Fill-21" class="st0" d="M182.9,79.8h-73.1c-2.2,0-4.1-1.8-4.1-4.1V33.2c0-2.2,1.8-4.1,4.1-4.1h73.1
							c2.2,0,4.1,1.8,4.1,4.1v42.6C187,78,185.2,79.8,182.9,79.8"/>
						<path id="Stroke-23" class="st1" d="M182.9,79.8h-73.1c-2.2,0-4.1-1.8-4.1-4.1V33.2c0-2.2,1.8-4.1,4.1-4.1h73.1
							c2.2,0,4.1,1.8,4.1,4.1v42.6C187,78,185.2,79.8,182.9,79.8z"/>
						<path id="Fill-25" class="st2" d="M150.9,48c0,2.3-1.9,4.2-4.2,4.2c-2.3,0-4.2-1.9-4.2-4.2s1.9-4.2,4.2-4.2
							C149,43.8,150.9,45.7,150.9,48"/>
						<path id="Stroke-27" class="st3" d="M150.9,48c0,2.3-1.9,4.2-4.2,4.2c-2.3,0-4.2-1.9-4.2-4.2s1.9-4.2,4.2-4.2
							C149,43.8,150.9,45.7,150.9,48z"/>
						<polygon id="Fill-29" class="st2" points="157.9,91.9 134.8,91.9 139.6,79.8 153.1,79.8 						"/>
						<polygon id="Stroke-31" class="st1" points="157.9,91.9 134.8,91.9 139.6,79.8 153.1,79.8 						"/>
						<path id="Fill-33" class="st0" d="M82.4,83.4H33.5c-2.2,0-4.1-1.8-4.1-4.1V51.9c0-2.2,1.8-4.1,4.1-4.1h48.9
							c2.2,0,4.1,1.8,4.1,4.1v27.5C86.4,81.6,84.6,83.4,82.4,83.4"/>
						<path id="Stroke-35" class="st1" d="M82.4,83.4H33.5c-2.2,0-4.1-1.8-4.1-4.1V51.9c0-2.2,1.8-4.1,4.1-4.1h48.9
							c2.2,0,4.1,1.8,4.1,4.1v27.5C86.4,81.6,84.6,83.4,82.4,83.4z"/>
						<path id="Fill-37" class="st2" d="M61.1,61.1c0,1.6-1.3,3-3,3c-1.6,0-3-1.3-3-3s1.3-3,3-3C59.7,58.1,61.1,59.5,61.1,61.1"/>
						<path id="Stroke-39" class="st3" d="M61.1,61.1c0,1.6-1.3,3-3,3c-1.6,0-3-1.3-3-3s1.3-3,3-3C59.7,58.1,61.1,59.5,61.1,61.1z"
							/>
						<polygon id="Fill-41" class="st2" points="66,91.9 49.8,91.9 53.2,83.4 62.7,83.4 						"/>
						<polygon id="Stroke-43" class="st1" points="66,91.9 49.8,91.9 53.2,83.4 62.7,83.4 						"/>
					</g>
				</g>
			</g>
		</g>
	</g>
</g>
</svg>
